<svg xmlns="http://www.w3.org/2000/svg" viewBox="0 0 500 500" width="500" height="500">
  <!-- Kwiat lotosu -->
  <g fill="none" stroke="#8DBF8F" stroke-width="12">
    <!-- Płatki -->
    <path d="M250,70 C210,160, 160,180, 150,240 C140,300, 190,330, 220,300 C250,270, 230,220, 250,200 C270,180, 290,250, 310,230 C330,210, 320,170, 290,160 C260,150, 250,70, 250,70 Z"/>
    <path d="M250,70 C290,160, 340,180, 350,240 C360,300, 310,330, 280,300 C250,270, 270,220, 250,200 C230,180, 210,250, 190,230 C170,210, 180,170, 210,160 C240,150, 250,70, 250,70 Z"/>
    <path d="M250,70 C290,110, 360,120, 380,70 C390,40, 320,10, 290,30 C260,50, 250,80, 250,70 Z"/>
    <path d="M250,70 C210,110, 140,120, 120,70 C110,40, 180,10, 210,30 C240,50, 250,80, 250,70 Z"/>
  </g>

  <!-- Napis "ajurweda" -->
  <text x="50%" y="450" font-family="Arial" font-size="48" fill="#8DBF8F" text-anchor="middle">
    ajurweda
  </text>
</svg>
